<svg role="img" viewBox="-0.5 -0.5 20 20" xmlns="http://www.w3.org/2000/svg" id="Amazonwebservices--Streamline-Simple-Icons" height="20" width="20"><desc>Amazonwebservices Streamline Icon: https://streamlinehq.com</desc><title>Amazon Web Services</title><path d="M5.354041666666667 7.945166666666667c0 0.23433333333333334 0.025333333333333336 0.4235416666666667 0.06966666666666667 0.5620833333333334 0.05066666666666667 0.13933333333333334 0.114 0.29133333333333333 0.2026666666666667 0.456 0.03166666666666667 0.049875 0.044333333333333336 0.10054166666666668 0.044333333333333336 0.144875 0 0.06333333333333334 -0.038000000000000006 0.12666666666666668 -0.12033333333333335 0.19l-0.3982083333333334 0.2652083333333334a0.30320833333333336 0.30320833333333336 0 0 1 -0.16466666666666668 0.057c-0.06333333333333334 0 -0.12666666666666668 -0.03166666666666667 -0.18920833333333334 -0.08866666666666667a1.955416666666667 1.955416666666667 0 0 1 -0.22720833333333335 -0.296875 4.8925 4.8925 0 0 1 -0.19633333333333336 -0.372875c-0.4924166666666667 0.5810833333333334 -1.112291666666667 0.8716250000000001 -1.8580416666666668 0.8716250000000001 -0.5304166666666668 0 -0.9539583333333335 -0.15120833333333336 -1.2635000000000003 -0.4544166666666667 -0.3095416666666667 -0.30400000000000005 -0.46708333333333335 -0.7077500000000001 -0.46708333333333335 -1.213625 0 -0.5367500000000001 0.18920833333333334 -0.9737500000000001 0.57475 -1.3015 0.38554166666666667 -0.3285416666666667 0.8969583333333334 -0.49320833333333336 1.5477083333333335 -0.49320833333333336 0.21533333333333338 0 0.4362083333333334 0.019000000000000003 0.6697500000000001 0.05066666666666667 0.23433333333333334 0.03166666666666667 0.47500000000000003 0.08233333333333334 0.7267500000000001 0.13933333333333334v-0.4615416666666667c0 -0.4805416666666667 -0.10054166666666668 -0.8154166666666668 -0.296875 -1.0109583333333334 -0.20187500000000003 -0.19633333333333336 -0.5430833333333335 -0.2905416666666667 -1.0291666666666668 -0.2905416666666667 -0.2216666666666667 0 -0.44966666666666666 0.02454166666666667 -0.6832083333333334 0.08154166666666667 -0.23354166666666668 0.057 -0.4615416666666667 0.12666666666666668 -0.6824166666666667 0.21533333333333338a1.8105416666666667 1.8105416666666667 0 0 1 -0.2216666666666667 0.08233333333333334 0.38633333333333336 0.38633333333333336 0 0 1 -0.10054166666666668 0.018208333333333333c-0.08866666666666667 0 -0.133 -0.06333333333333334 -0.133 -0.19554166666666667v-0.3095416666666667c0 -0.10133333333333334 0.012666666666666668 -0.17733333333333334 0.044333333333333336 -0.2216666666666667a0.472625 0.472625 0 0 1 0.17733333333333334 -0.13220833333333334c0.22087500000000004 -0.114 0.48608333333333337 -0.20900000000000002 0.795625 -0.28500000000000003a3.831666666666667 3.831666666666667 0 0 1 0.9864166666666667 -0.11954166666666667c0.7520833333333333 0 1.3015 0.171 1.6553750000000003 0.5122083333333334 0.3475416666666667 0.3404166666666667 0.5240833333333335 0.8589583333333334 0.5240833333333335 1.5540416666666668v2.04725zm-2.5650000000000004 0.9610833333333334c0.20820833333333336 0 0.42275000000000007 -0.038000000000000006 0.65075 -0.114 0.22720833333333335 -0.07600000000000001 0.42987500000000006 -0.2145416666666667 0.6000833333333334 -0.40375000000000005 0.10133333333333334 -0.12033333333333335 0.17733333333333334 -0.25333333333333335 0.21533333333333338 -0.4053333333333334 0.037208333333333336 -0.15120833333333336 0.06333333333333334 -0.33487500000000003 0.06333333333333334 -0.5494166666666667v-0.2652083333333334a5.272500000000001 5.272500000000001 0 0 0 -0.581875 -0.10766666666666669 4.765833333333333 4.765833333333333 0 0 0 -0.59375 -0.038000000000000006c-0.4235416666666667 0 -0.7330833333333334 0.08233333333333334 -0.9420833333333334 0.25333333333333335 -0.20820833333333336 0.17020833333333335 -0.30875 0.4100833333333334 -0.30875 0.7259583333333335 0 0.296875 0.07520833333333334 0.5185416666666668 0.23354166666666668 0.6697500000000001 0.15120833333333336 0.15833333333333335 0.3720833333333333 0.23433333333333334 0.6634166666666667 0.23433333333333334zm5.074583333333334 0.6824166666666667c-0.114 0 -0.19 -0.019000000000000003 -0.2406666666666667 -0.06333333333333334 -0.05066666666666667 -0.038000000000000006 -0.095 -0.12666666666666668 -0.133 -0.24620833333333336L6.005583333333334 4.393750000000001a1.1067500000000001 1.1067500000000001 0 0 1 -0.057 -0.25333333333333335c0 -0.10133333333333334 0.05066666666666667 -0.15833333333333335 0.15120833333333336 -0.15833333333333335h0.6198750000000001c0.11954166666666667 0 0.20187500000000003 0.01979166666666667 0.2454166666666667 0.06333333333333334 0.05145833333333334 0.038000000000000006 0.08945833333333335 0.12666666666666668 0.12666666666666668 0.24700000000000003l1.0624166666666668 4.183166666666667 0.9856250000000002 -4.183166666666667c0.03166666666666667 -0.12666666666666668 0.06966666666666667 -0.20900000000000002 0.11954166666666667 -0.24700000000000003a0.4346250000000001 0.4346250000000001 0 0 1 0.25333333333333335 -0.06333333333333334h0.5050833333333334c0.12033333333333335 0 0.2026666666666667 0.01979166666666667 0.25333333333333335 0.06333333333333334 0.049875 0.038000000000000006 0.095 0.12666666666666668 0.11954166666666667 0.24700000000000003l0.9982916666666667 4.233833333333334 1.0932916666666668 -4.233833333333334c0.038000000000000006 -0.12666666666666668 0.08233333333333334 -0.20900000000000002 0.12666666666666668 -0.24700000000000003a0.41166666666666674 0.41166666666666674 0 0 1 0.24620833333333336 -0.06333333333333334h0.5882083333333333c0.10054166666666668 0 0.15833333333333335 0.05145833333333334 0.15833333333333335 0.15833333333333335 0 0.03166666666666667 -0.007125 0.06333333333333334 -0.013458333333333336 0.10133333333333334a0.9001250000000001 0.9001250000000001 0 0 1 -0.044333333333333336 0.15833333333333335l-1.5223750000000003 4.8845833333333335c-0.038000000000000006 0.12666666666666668 -0.08233333333333334 0.20820833333333336 -0.133 0.24620833333333336a0.40375000000000005 0.40375000000000005 0 0 1 -0.239875 0.06333333333333334h-0.5438750000000001c-0.11954166666666667 0 -0.20187500000000003 -0.019000000000000003 -0.25333333333333335 -0.06333333333333334 -0.049875 -0.044333333333333336 -0.09420833333333334 -0.12666666666666668 -0.11875000000000001 -0.25333333333333335l-0.9800833333333334 -4.0755 -0.9737500000000001 4.069166666666667c-0.03166666666666667 0.12666666666666668 -0.068875 0.20900000000000002 -0.11875000000000001 0.25333333333333335 -0.05145833333333334 0.044333333333333336 -0.140125 0.06333333333333334 -0.25333333333333335 0.06333333333333334zm8.119333333333334 0.17020833333333335c-0.3285416666666667 0 -0.6570833333333334 -0.038000000000000006 -0.9729583333333335 -0.11320833333333334 -0.3158750000000001 -0.07600000000000001 -0.5620833333333334 -0.15833333333333335 -0.7267500000000001 -0.25333333333333335 -0.10133333333333334 -0.05620833333333333 -0.17020833333333335 -0.11954166666666667 -0.19554166666666667 -0.17654166666666668a0.4457083333333333 0.4457083333333333 0 0 1 -0.038000000000000006 -0.17733333333333334v-0.3222083333333333c0 -0.13220833333333334 0.05066666666666667 -0.19554166666666667 0.144875 -0.19554166666666667 0.038000000000000006 0 0.07600000000000001 0.006333333333333334 0.114 0.019000000000000003 0.038000000000000006 0.012666666666666668 0.095 0.038000000000000006 0.15833333333333335 0.06333333333333334 0.2145416666666667 0.095 0.44808333333333333 0.17020833333333335 0.6950833333333334 0.22087500000000004 0.2525416666666667 0.05066666666666667 0.49875 0.07600000000000001 0.7520833333333333 0.07600000000000001 0.3974166666666667 0 0.7077500000000001 -0.06966666666666667 0.9222916666666667 -0.20900000000000002a0.6808333333333334 0.6808333333333334 0 0 0 0.3285416666666667 -0.6000833333333334 0.615125 0.615125 0 0 0 -0.17020833333333335 -0.4425416666666667c-0.114 -0.11954166666666667 -0.32933333333333337 -0.22720833333333335 -0.6388750000000001 -0.3285416666666667l-0.9159583333333334 -0.28500000000000003c-0.4615416666666667 -0.144875 -0.8027500000000001 -0.3594166666666667 -1.0109583333333334 -0.643625a1.5057500000000001 1.5057500000000001 0 0 1 -0.3166666666666667 -0.9167500000000001c0 -0.2652083333333334 0.05779166666666667 -0.49875 0.171 -0.7014166666666667 0.114 -0.20187500000000003 0.2652083333333334 -0.37920833333333337 0.4552083333333333 -0.51775 0.19 -0.14566666666666667 0.40375000000000005 -0.25333333333333335 0.6570833333333334 -0.3285416666666667 0.25333333333333335 -0.07600000000000001 0.5185416666666668 -0.10766666666666669 0.7964166666666668 -0.10766666666666669 0.13854166666666667 0 0.28420833333333334 0.006333333333333334 0.4235416666666667 0.025333333333333336 0.144875 0.019000000000000003 0.27708333333333335 0.044333333333333336 0.4100833333333334 0.06966666666666667 0.12666666666666668 0.03166666666666667 0.24700000000000003 0.06333333333333334 0.36020833333333335 0.10054166666666668 0.114 0.038000000000000006 0.2026666666666667 0.07600000000000001 0.266 0.114a0.54625 0.54625 0 0 1 0.19 0.15833333333333335 0.3404166666666667 0.3404166666666667 0 0 1 0.05620833333333333 0.20820833333333336v0.296875c0 0.133 -0.05066666666666667 0.2026666666666667 -0.14566666666666667 0.2026666666666667a0.6570833333333334 0.6570833333333334 0 0 1 -0.239875 -0.07600000000000001 2.891166666666667 2.891166666666667 0 0 0 -1.2128333333333334 -0.24620833333333336c-0.36020833333333335 0 -0.6452083333333334 0.05620833333333333 -0.8407500000000001 0.17654166666666668 -0.19633333333333336 0.12033333333333335 -0.296875 0.30320833333333336 -0.296875 0.5620833333333334 0 0.17733333333333334 0.06333333333333334 0.32933333333333337 0.19 0.448875 0.12587500000000001 0.12033333333333335 0.3594166666666667 0.2406666666666667 0.6942916666666668 0.3483333333333334l0.89775 0.2834166666666667c0.4544166666666667 0.14566666666666667 0.7837500000000001 0.3483333333333334 0.9792916666666668 0.6072083333333333 0.19554166666666667 0.258875 0.2905416666666667 0.55575 0.2905416666666667 0.8842916666666667 0 0.27154166666666674 -0.057 0.5185416666666668 -0.16387500000000002 0.7330833333333334 -0.114 0.21533333333333338 -0.266 0.4045416666666667 -0.4615416666666667 0.5565416666666667 -0.19633333333333336 0.15833333333333335 -0.42987500000000006 0.27154166666666674 -0.7014166666666667 0.35387500000000005 -0.28500000000000003 0.08787500000000001 -0.5810833333333334 0.13220833333333334 -0.9040833333333333 0.13220833333333334zm1.194625 3.0716666666666668c-2.0789166666666667 1.5358333333333334 -5.099916666666667 2.3504583333333335 -7.696583333333334 2.3504583333333335 -3.6400833333333336 0 -6.919166666666667 -1.3458333333333334 -9.397083333333333 -3.5830833333333336 -0.19554166666666667 -0.17654166666666668 -0.019000000000000003 -0.4172083333333334 0.21533333333333338 -0.277875 2.6790000000000003 1.5540416666666668 5.984208333333334 2.496125 9.402625000000002 2.496125 2.306916666666667 0 4.84025 -0.4805416666666667 7.172500000000001 -1.4661666666666668 0.3475416666666667 -0.15833333333333335 0.6444166666666666 0.22720833333333335 0.30320833333333336 0.4805416666666667zm0.8660833333333334 -0.9864166666666667c-0.266 -0.3404166666666667 -1.7575000000000003 -0.16387500000000002 -2.4335833333333334 -0.08154166666666667 -0.20187500000000003 0.025333333333333336 -0.23354166666666668 -0.15200000000000002 -0.049875 -0.28500000000000003 1.1875 -0.8336250000000001 3.140541666666667 -0.59375 3.36775 -0.3158750000000001 0.22720833333333335 0.28500000000000003 -0.06333333333333334 2.2372500000000004 -1.1756250000000001 3.1722083333333333 -0.17020833333333335 0.14566666666666667 -0.33487500000000003 0.06966666666666667 -0.258875 -0.11954166666666667 0.25333333333333335 -0.6254166666666667 0.8154166666666668 -2.0345833333333334 0.5502083333333333 -2.3702500000000004z"></path></svg>