<svg role="img" viewBox="-0.5 -0.5 20 20" xmlns="http://www.w3.org/2000/svg" id="Cisco--Streamline-Simple-Icons" height="20" width="20"><desc>Cisco Streamline Icon: https://streamlinehq.com</desc><title>Cisco</title><path d="M12.928708333333335 14.385375000000002V13.505833333333333l-0.017416666666666667 0.007916666666666667c-0.19791666666666669 0.09579166666666668 -0.41325000000000006 0.15041666666666667 -0.634125 0.16070833333333337a0.9389166666666667 0.9389166666666667 0 0 1 -0.6380833333333334 -0.18762500000000001 0.8217500000000001 0.8217500000000001 0 0 1 -0.2786666666666667 -0.39425000000000004 0.9579166666666667 0.9579166666666667 0 0 1 -0.018208333333333333 -0.5280416666666667c0.04116666666666667 -0.17812500000000003 0.14091666666666666 -0.33725000000000005 0.282625 -0.45045833333333335 0.12666666666666668 -0.10608333333333335 0.2810416666666667 -0.17258333333333334 0.44491666666666674 -0.19158333333333336a1.4645833333333336 1.4645833333333336 0 0 1 0.8399583333333334 0.15675000000000003l0.019000000000000003 0.010291666666666668v-0.8842916666666667l-0.040375 -0.011083333333333334a2.26575 2.26575 0 0 0 -0.800375 -0.10450000000000001 1.8525 1.8525 0 0 0 -0.714875 0.16308333333333333c-0.22720833333333335 0.10450000000000001 -0.42750000000000005 0.258875 -0.5850416666666667 0.4520416666666667a1.7582916666666668 1.7582916666666668 0 0 0 -0.03166666666666667 2.1414583333333335c0.23354166666666668 0.29925 0.5612916666666667 0.5106250000000001 0.9302083333333334 0.5985 0.3887083333333334 0.095 0.7964166666666668 0.08075 1.1772083333333334 -0.04116666666666667l0.06491666666666668 -0.018208333333333333m-8.704375 0V13.505833333333333l-0.017416666666666667 0.007916666666666667c-0.19791666666666669 0.09579166666666668 -0.41325000000000006 0.15041666666666667 -0.634125 0.16070833333333337a0.9365416666666668 0.9365416666666668 0 0 1 -0.6380833333333334 -0.18762500000000001 0.8154166666666668 0.8154166666666668 0 0 1 -0.277875 -0.39425000000000004 0.9515833333333333 0.9515833333333333 0 0 1 -0.019000000000000003 -0.5280416666666667c0.04116666666666667 -0.17812500000000003 0.140125 -0.33725000000000005 0.282625 -0.45045833333333335 0.12666666666666668 -0.10608333333333335 0.2810416666666667 -0.17258333333333334 0.44491666666666674 -0.19158333333333336a1.4645833333333336 1.4645833333333336 0 0 1 0.8399583333333334 0.15675000000000003l0.019000000000000003 0.010291666666666668v-0.8842916666666667l-0.040375 -0.011083333333333334a2.26575 2.26575 0 0 0 -0.800375 -0.10450000000000001 1.8556666666666668 1.8556666666666668 0 0 0 -0.714875 0.16308333333333333 1.646666666666667 1.646666666666667 0 0 0 -0.5858333333333334 0.4520416666666667 1.760666666666667 1.760666666666667 0 0 0 -0.03245833333333334 2.1414583333333335 1.6704166666666667 1.6704166666666667 0 0 0 0.931 0.5985c0.3887083333333334 0.095 0.795625 0.08075 1.1772083333333334 -0.04116666666666667l0.06570833333333334 -0.018208333333333333m3.1065 -0.7299166666666668 -0.003166666666666667 0.757625 0.05541666666666668 0.009500000000000001c0.1741666666666667 0.03245833333333334 0.349125 0.05462500000000001 0.5256666666666667 0.06729166666666668 0.154375 0.015041666666666668 0.3095416666666667 0.017416666666666667 0.46470833333333333 0.009500000000000001 0.14804166666666668 -0.011083333333333334 0.29450000000000004 -0.03879166666666667 0.4362083333333334 -0.08233333333333334 0.16625 -0.0475 0.32062500000000005 -0.1290416666666667 0.4520416666666667 -0.24145833333333336a0.9183333333333333 0.9183333333333333 0 0 0 0.26362500000000005 -0.3784166666666667 1.0370833333333336 1.0370833333333336 0 0 0 -0.005541666666666667 -0.76 0.8455000000000001 0.8455000000000001 0 0 0 -0.2359166666666667 -0.32775000000000004 0.9982916666666667 0.9982916666666667 0 0 0 -0.34675000000000006 -0.20187500000000003l-0.5715833333333333 -0.2121666666666667a0.3071666666666667 0.3071666666666667 0 0 1 -0.15595833333333337 -0.14883333333333335 0.19395833333333334 0.19395833333333334 0 0 1 0.006333333333333334 -0.17337500000000003 0.3024166666666667 0.3024166666666667 0 0 1 0.12191666666666667 -0.11241666666666666 0.6317500000000001 0.6317500000000001 0 0 1 0.20345833333333335 -0.058583333333333334c0.12112500000000001 -0.017416666666666667 0.24383333333333335 -0.016625 0.3641666666666667 0.003958333333333334 0.14250000000000002 0.015833333333333335 0.2834166666666667 0.040375 0.4219583333333334 0.07600000000000001l0.030083333333333337 0.006333333333333334v-0.6990416666666668l-0.05462500000000001 -0.011875a3.759625 3.759625 0 0 0 -0.42987500000000006 -0.07679166666666667 2.2515 2.2515 0 0 0 -0.56525 -0.0023750000000000004c-0.23750000000000002 0.021375 -0.463125 0.11320833333333334 -0.6499583333333333 0.26125000000000004 -0.12666666666666668 0.09975 -0.22245833333333337 0.23195833333333335 -0.277875 0.3831666666666667 -0.08233333333333334 0.22958333333333333 -0.083125 0.4813333333333334 0 0.7117083333333334 0.04275 0.11479166666666667 0.11083333333333335 0.2169166666666667 0.1995 0.30162500000000003 0.07679166666666667 0.07362500000000001 0.16387500000000002 0.13695833333333335 0.258875 0.18683333333333335 0.12429166666666668 0.0665 0.2565 0.11795833333333335 0.39345833333333335 0.154375 0.045125000000000005 0.013458333333333336 0.09025000000000001 0.02770833333333334 0.13458333333333336 0.04275l0.06729166666666668 0.02454166666666667 0.019000000000000003 0.007916666666666667c0.0665 0.02375 0.12825 0.061750000000000006 0.1789166666666667 0.11083333333333335 0.035625000000000004 0.03325 0.06333333333333334 0.07441666666666667 0.07995833333333334 0.11954166666666667a0.2572916666666667 0.2572916666666667 0 0 1 0.0007916666666666668 0.12745833333333334 0.26837500000000003 0.26837500000000003 0 0 1 -0.13141666666666668 0.15675000000000003 0.6776666666666668 0.6776666666666668 0 0 1 -0.21770833333333336 0.06808333333333333 1.608666666666667 1.608666666666667 0 0 1 -0.3380416666666667 0.016625 4.123 4.123 0 0 1 -0.4409583333333334 -0.058583333333333334 7.279375000000001 7.279375000000001 0 0 1 -0.22720833333333335 -0.053041666666666674l-0.026125000000000002 -0.004750000000000001zm-1.9593750000000003 0.7877083333333335h0.8312500000000002v-3.2988750000000002h-0.8312500000000002v3.2988750000000002zm9.628250000000001 -2.3243333333333336a0.8668750000000001 0.8668750000000001 0 0 1 1.2199583333333335 0.12508333333333335 0.8660833333333334 0.8660833333333334 0 0 1 -0.12429166666666668 1.2199583333333335l-0.013458333333333336 0.011083333333333334a0.8676666666666668 0.8676666666666668 0 0 1 -1.0822083333333334 -1.3561250000000002m-1.2072916666666667 0.6760833333333334a1.7361250000000001 1.7361250000000001 0 0 0 2.1105833333333335 1.668041666666667 1.693375 1.693375 0 0 0 0.5549583333333333 -3.116791666666667 1.7472083333333335 1.7472083333333335 0 0 0 -2.665541666666667 1.4487500000000002m4.385041666666667 -4.301916666666667a0.41166666666666674 0.41166666666666674 0 0 0 0.8225416666666667 0V7.578625000000001a0.41166666666666674 0.41166666666666674 0 0 0 -0.8225416666666667 0v0.9143750000000002m-2.2515 0a0.41325000000000006 0.41325000000000006 0 0 0 0.824125 0V6.4433750000000005a0.41245833333333337 0.41245833333333337 0 0 0 -0.8233333333333335 0v2.0496250000000003m-2.285541666666667 0.8257083333333334a0.41245833333333337 0.41245833333333337 0 0 0 0.8225416666666667 0V4.8845833333333335a0.41166666666666674 0.41166666666666674 0 0 0 -0.8225416666666667 0v4.434125000000001m-2.2467500000000005 -0.8257083333333334a0.41245833333333337 0.41245833333333337 0 0 0 0.8233333333333335 0V6.4433750000000005a0.41166666666666674 0.41166666666666674 0 0 0 -0.8225416666666667 0v2.0496250000000003m-2.2958333333333334 0a0.41325000000000006 0.41325000000000006 0 0 0 0.8225416666666667 0V7.578625000000001a0.41166666666666674 0.41166666666666674 0 0 0 -0.8225416666666667 0v0.9143750000000002m-2.2720833333333337 0a0.41166666666666674 0.41166666666666674 0 0 0 0.8225416666666667 0V6.4433750000000005a0.41166666666666674 0.41166666666666674 0 0 0 -0.8225416666666667 0v2.0496250000000003m-2.285541666666667 0.8257083333333334a0.41166666666666674 0.41166666666666674 0 0 0 0.8225416666666667 0V4.8845833333333335a0.41166666666666674 0.41166666666666674 0 0 0 -0.8225416666666667 0v4.434125000000001m-2.264958333333334 -0.8257083333333334a0.41325000000000006 0.41325000000000006 0 0 0 0.8233333333333335 0V6.4433750000000005a0.41166666666666674 0.41166666666666674 0 0 0 -0.8225416666666667 0v2.0496250000000003m-2.277625 0a0.41245833333333337 0.41245833333333337 0 0 0 0.8225416666666667 0V7.578625000000001a0.41166666666666674 0.41166666666666674 0 0 0 -0.8225416666666667 0v0.9143750000000002" fill="#00BCEB" stroke-width="1"></path></svg>