<svg role="img" viewBox="-0.5 -0.5 20 20" xmlns="http://www.w3.org/2000/svg" id="Grafana--Streamline-Simple-Icons" height="20" width="20"><desc>Grafana Streamline Icon: https://streamlinehq.com</desc><title>Grafana</title><path d="M18.22416666666667 8.383750000000001a6.790916666666667 6.790916666666667 0 0 0 -0.6824166666666667 -2.4019166666666667 7.054541666666667 7.054541666666667 0 0 0 -1.4162916666666667 -1.9356250000000002c0.2667916666666667 -1.0624166666666668 -0.32695833333333335 -1.983125 -0.32695833333333335 -1.983125 -1.0228333333333335 -0.06333333333333334 -1.672791666666667 0.3166666666666667 -1.9126666666666667 0.4908333333333334 -0.04116666666666667 -0.015833333333333335 -0.08075 -0.034833333333333334 -0.12191666666666667 -0.05066666666666667 -0.1741666666666667 -0.07045833333333333 -0.35308333333333336 -0.13616666666666666 -0.5359583333333334 -0.19554166666666667 -0.18287500000000004 -0.05779166666666667 -0.3720833333333333 -0.11083333333333335 -0.562875 -0.15595833333333337a7.811375000000002 7.811375000000002 0 0 0 -0.6927083333333334 -0.12745833333333334C11.524291666666668 0.596125 10.244166666666667 0 10.244166666666667 0c-1.4281666666666668 0.9064583333333335 -1.6997083333333334 2.172333333333334 -1.6997083333333334 2.172333333333334l-0.01425 0.07362500000000001c-0.07758333333333334 0.022958333333333338 -0.15833333333333335 0.045125000000000005 -0.2359166666666667 0.06966666666666667 -0.10925000000000001 0.03325 -0.21770833333333336 0.07441666666666667 -0.32695833333333335 0.11320833333333334 -0.10925000000000001 0.04354166666666667 -0.21770833333333336 0.08470833333333334 -0.32458333333333333 0.13141666666666668a7.021291666666667 7.021291666666667 0 0 0 -1.232625 0.6887500000000001l-0.049875 -0.022958333333333338c-1.9767916666666667 -0.7560416666666667 -3.7335000000000007 0.154375 -3.7335000000000007 0.154375 -0.16070833333333337 2.10425 0.7885000000000001 3.427916666666667 0.9777083333333335 3.6701666666666672a9.189666666666668 9.189666666666668 0 0 0 -0.4805416666666667 2.0860416666666666C1.2951666666666668 10.035958333333333 0.7544583333333333 11.886083333333334 0.7544583333333333 11.886083333333334c1.52475 1.75275 3.302041666666667 1.8612083333333336 3.302041666666667 1.8612083333333336 0.0023750000000000004 -0.0015833333333333335 0.004750000000000001 -0.0015833333333333335 0.004750000000000001 -0.003958333333333334 0.225625 0.40295833333333336 0.48687500000000006 0.7869166666666667 0.7805833333333334 1.1447500000000002 0.12350000000000001 0.15041666666666667 0.25333333333333335 0.29370833333333335 0.38633333333333336 0.4338333333333334 -0.5573333333333333 1.5904583333333333 0.07837500000000001 2.9133333333333336 0.07837500000000001 2.9133333333333336 1.6973333333333336 0.06333333333333334 2.812791666666667 -0.7417916666666667 3.0471250000000003 -0.9286250000000001a7.745666666666668 7.745666666666668 0 0 0 2.5048333333333335 0.39662500000000006h0.06333333333333334l0.04354166666666667 -0.0023750000000000004 0.08470833333333334 -0.0015833333333333335 0.08154166666666667 -0.003958333333333334 0.0023750000000000004 0.0015833333333333335c0.7995833333333334 1.1400000000000001 2.2071666666666667 1.3030833333333334 2.2071666666666667 1.3030833333333334 1.0006666666666668 -1.0545000000000002 1.0584583333333335 -2.1002916666666667 1.0584583333333335 -2.3275v-0.045916666666666675c0 -0.015833333333333335 -0.0023750000000000004 -0.030875000000000003 -0.0023750000000000004 -0.0475 0.2097916666666667 -0.14804166666666668 0.41166666666666674 -0.30637500000000006 0.6000833333333334 -0.47500000000000003a6.234375000000001 6.234375000000001 0 0 0 1.1202083333333335 -1.3458333333333334c1.1320833333333333 0.06570833333333334 1.9292916666666666 -0.700625 1.9292916666666666 -0.700625 -0.18683333333333335 -1.1795833333333334 -0.8589583333333334 -1.7543333333333337 -1.0006666666666668 -1.8635833333333336l-0.01425 -0.010291666666666668 -0.012666666666666668 -0.010291666666666668a0.17179166666666668 0.17179166666666668 0 0 1 -0.02454166666666667 -0.015833333333333335c0.006333333333333334 -0.07283333333333333 0.012666666666666668 -0.14250000000000002 0.015833333333333335 -0.21375000000000002 0.008708333333333334 -0.12825 0.012666666666666668 -0.25570833333333337 0.012666666666666668 -0.38v-0.2002916666666667l-0.003958333333333334 -0.07758333333333334 -0.006333333333333334 -0.10687500000000001a1.4970416666666668 1.4970416666666668 0 0 0 -0.007916666666666667 -0.10291666666666668c-0.0023750000000000004 -0.03325 -0.006333333333333334 -0.06570833333333334 -0.010291666666666668 -0.09895833333333334l-0.012666666666666668 -0.09816666666666668 -0.01425 -0.09658333333333334a4.920208333333334 4.920208333333334 0 0 0 -1.608666666666667 -2.952916666666667 4.761875 4.761875 0 0 0 -2.5507500000000003 -1.1558333333333335 4.981166666666667 4.981166666666667 0 0 0 -0.6729166666666667 -0.038000000000000006l-0.08470833333333334 0.0015833333333333335h-0.049875l-0.034833333333333334 0.0023750000000000004 -0.08233333333333334 0.006333333333333334a3.7817916666666673 3.7817916666666673 0 0 0 -2.6402083333333337 1.3418750000000002c-0.26283333333333336 0.3166666666666667 -0.4686666666666667 0.665 -0.6080000000000001 1.0267916666666668a3.6369166666666675 3.6369166666666675 0 0 0 -0.24700000000000003 1.4384583333333334l0.0023750000000000004 0.07204166666666667c0.003958333333333334 0.04354166666666667 0.005541666666666667 0.08708333333333335 0.010291666666666668 0.12983333333333336a2.8618750000000004 2.8618750000000004 0 0 0 0.5525833333333333 1.4408333333333334 2.7945833333333336 2.7945833333333336 0 0 0 1.4463750000000002 1.0149166666666667c0.26125000000000004 0.07758333333333334 0.5225000000000001 0.11083333333333335 0.7687083333333334 0.10845833333333335 0.030875000000000003 0 0.061750000000000006 0 0.09025000000000001 -0.0015833333333333335l0.049875 -0.0023750000000000004c0.015833333333333335 0 0.03245833333333334 -0.0023750000000000004 0.04908333333333334 -0.0023750000000000004 0.026916666666666672 -0.0015833333333333335 0.05145833333333334 -0.005541666666666667 0.07837500000000001 -0.007916666666666667 0.005541666666666667 0 0.01425 -0.0023750000000000004 0.022166666666666668 -0.0023750000000000004l0.02454166666666667 -0.003958333333333334 0.0475 -0.006333333333333334a0.9341666666666667 0.9341666666666667 0 0 0 0.08866666666666667 -0.015833333333333335c0.0285 -0.006333333333333334 0.057 -0.010291666666666668 0.08629166666666667 -0.019000000000000003a2.0852500000000003 2.0852500000000003 0 0 0 0.7235833333333335 -0.3285416666666667c0.022166666666666668 -0.015833333333333335 0.044333333333333336 -0.03245833333333334 0.06729166666666668 -0.05145833333333334a0.19633333333333336 0.19633333333333336 0 0 0 0.030875000000000003 -0.27708333333333335 0.19316666666666668 0.19316666666666668 0 0 0 -0.244625 -0.0475l-0.061750000000000006 0.03325c-0.07125000000000001 0.034833333333333334 -0.14566666666666667 0.06570833333333334 -0.22404166666666667 0.09183333333333335a1.9601666666666668 1.9601666666666668 0 0 1 -0.37604166666666666 0.07600000000000001c-0.022166666666666668 0.0023750000000000004 -0.04275 0.004750000000000001 -0.06570833333333334 0.004750000000000001l-0.06570833333333334 0.0015833333333333335c-0.020583333333333335 0 -0.04275 0 -0.06333333333333334 -0.0015833333333333335l-0.08075 -0.004750000000000001h-0.009500000000000001l-0.019000000000000003 0.004750000000000001c-0.012666666666666668 -0.0023750000000000004 -0.02454166666666667 -0.0023750000000000004 -0.034833333333333334 -0.004750000000000001 -0.02454166666666667 -0.0015833333333333335 -0.0475 -0.005541666666666667 -0.07204166666666667 -0.007916666666666667a2.0504166666666666 2.0504166666666666 0 0 1 -0.5731666666666667 -0.16862500000000002 2.0242916666666666 2.0242916666666666 0 0 1 -0.5280416666666667 -0.34675000000000006 1.995 1.995 0 0 1 -0.6372916666666668 -1.1677083333333336 1.8255833333333336 1.8255833333333336 0 0 1 -0.022958333333333338 -0.35150000000000003l0.004750000000000001 -0.09658333333333334v-0.018208333333333333l0.0015833333333333335 -0.02454166666666667c0.0023750000000000004 -0.016625 0.0023750000000000004 -0.03166666666666667 0.003958333333333334 -0.0475a2.5040416666666667 2.5040416666666667 0 0 1 1.0703333333333336 -1.812916666666667 2.47 2.47 0 0 1 0.7417916666666667 -0.3404166666666667 2.33225 2.33225 0 0 1 0.6143333333333334 -0.07995833333333334h0.0475l0.05541666666666668 0.0015833333333333335 0.035625000000000004 0.0023750000000000004h0.020583333333333335l0.05541666666666668 0.003958333333333334a3.1991250000000004 3.1991250000000004 0 0 1 1.294375 0.3879166666666667 3.119166666666667 3.119166666666667 0 0 1 1.26825 1.31575 2.9845833333333336 2.9845833333333336 0 0 1 0.3142916666666667 1.1194166666666667l0.003958333333333334 0.060166666666666674 0.0023750000000000004 0.059375000000000004c0.0015833333333333335 0.020583333333333335 0.0015833333333333335 0.03958333333333334 0.0015833333333333335 0.059375000000000004 0 0.019000000000000003 0.0023750000000000004 0.04116666666666667 0 0.05541666666666668v0.05145833333333334l-0.0015833333333333335 0.05779166666666667 -0.006333333333333334 0.13775a4.904375000000001 4.904375000000001 0 0 1 -0.06333333333333334 0.5058750000000001 4.0375000000000005 4.0375000000000005 0 0 1 -0.21137500000000004 0.733875 4.20375 4.20375 0 0 1 -0.49400000000000005 0.8945833333333333 3.9995000000000003 3.9995000000000003 0 0 1 -2.562625 1.5944166666666666 3.815833333333334 3.815833333333334 0 0 1 -0.5137916666666668 0.052250000000000005l-0.030875000000000003 0.0023750000000000004h-0.22720833333333335a5.230541666666667 5.230541666666667 0 0 1 -1.3585 -0.2097916666666667 5.364333333333334 5.364333333333334 0 0 1 -2.691666666666667 -1.8002500000000001 5.343750000000001 5.343750000000001 0 0 1 -0.5905833333333333 -0.9104166666666667 5.237666666666667 5.237666666666667 0 0 1 -0.56525 -2.055166666666667l-0.003958333333333334 -0.06570833333333334 -0.0015833333333333335 -0.015833333333333335v-0.044333333333333336l-0.0023750000000000004 -0.05779166666666667v-0.07600000000000001l-0.0023750000000000004 -0.08233333333333334v-0.05541666666666668l0.0023750000000000004 -0.1290416666666667c0.006333333333333334 -0.1741666666666667 0.020583333333333335 -0.35625000000000007 0.04275 -0.5367500000000001a6.893041666666668 6.893041666666668 0 0 1 0.2216666666666667 -1.0727083333333334c0.10133333333333334 -0.35150000000000003 0.22641666666666668 -0.6903333333333334 0.37445833333333334 -1.0109583333333334a5.573333333333334 5.573333333333334 0 0 1 1.1526666666666667 -1.6625000000000003 4.690625000000001 4.690625000000001 0 0 1 0.7544583333333333 -0.6040416666666667c0.1337916666666667 -0.08787500000000001 0.27154166666666674 -0.16862500000000002 0.4148333333333334 -0.24225000000000002 0.07045833333333333 -0.03958333333333334 0.14408333333333334 -0.07204166666666667 0.21612500000000004 -0.10687500000000001 0.037208333333333336 -0.015833333333333335 0.07362500000000001 -0.03325 0.10925000000000001 -0.04908333333333334a5.681791666666667 5.681791666666667 0 0 1 0.56525 -0.21137500000000004l0.11479166666666667 -0.035625000000000004c0.03879166666666667 -0.011875 0.07758333333333334 -0.020583333333333335 0.11716666666666667 -0.03245833333333334 0.07758333333333334 -0.022958333333333338 0.15595833333333337 -0.04116666666666667 0.23433333333333334 -0.060166666666666674 0.03879166666666667 -0.010291666666666668 0.07916666666666668 -0.015833333333333335 0.11875000000000001 -0.026125000000000002l0.11875000000000001 -0.025333333333333336 0.11954166666666667 -0.022166666666666668 0.060166666666666674 -0.010291666666666668 0.059375000000000004 -0.007916666666666667 0.12112500000000001 -0.019000000000000003c0.045125000000000005 -0.007916666666666667 0.09025000000000001 -0.010291666666666668 0.13537500000000002 -0.018208333333333333l0.1337916666666667 -0.016625c0.0285 -0.0023750000000000004 0.05779166666666667 -0.006333333333333334 0.08391666666666667 -0.007916666666666667l0.05779166666666667 -0.006333333333333334 0.0285 -0.0023750000000000004 0.03325 -0.0015833333333333335c0.045125000000000005 -0.0023750000000000004 0.09025000000000001 -0.006333333333333334 0.13537500000000002 -0.007916666666666667l0.06808333333333333 -0.004750000000000001h0.018208333333333333l0.029291666666666667 -0.0023750000000000004 0.11479166666666667 -0.005541666666666667a6.332541666666667 6.332541666666667 0 0 1 1.3521666666666667 0.09895833333333334 6.267625000000001 6.267625000000001 0 0 1 1.6213333333333335 0.5383333333333334 6.533625000000001 6.533625000000001 0 0 1 1.3236666666666668 0.8629166666666668l0.07125000000000001 0.06095833333333334 0.07045833333333333 0.061750000000000006c0.0475 0.04116666666666667 0.09025000000000001 0.08470833333333334 0.13537500000000002 0.12587500000000001 0.045125000000000005 0.04116666666666667 0.08866666666666667 0.08391666666666667 0.13141666666666668 0.12666666666666668 0.04116666666666667 0.04354166666666667 0.08470833333333334 0.08470833333333334 0.12587500000000001 0.12983333333333336a6.864541666666667 6.864541666666667 0 0 1 1.11625 1.5659166666666668c0.009500000000000001 0.020583333333333335 0.022166666666666668 0.04116666666666667 0.03166666666666667 0.061750000000000006l0.03166666666666667 0.061750000000000006 0.059375000000000004 0.12350000000000001c0.018208333333333333 0.040375 0.03958333333333334 0.07916666666666668 0.05541666666666668 0.12112500000000001l0.05145833333333334 0.11875000000000001a7.004666666666668 7.004666666666668 0 0 1 0.35625000000000007 1.0608333333333335 0.15041666666666667 0.15041666666666667 0 0 0 0.15912500000000002 0.11241666666666666 0.14725000000000002 0.14725000000000002 0 0 0 0.13616666666666666 -0.14566666666666667c0.007916666666666667 -0.19475 0.0015833333333333335 -0.42116666666666674 -0.019000000000000003 -0.6776666666666668z" fill="#ca8a04"></path></svg>