<svg role="img" viewBox="-0.5 -0.5 20 20" xmlns="http://www.w3.org/2000/svg" id="Jenkins--Streamline-Simple-Icons" height="16" width="16"><desc>Jenkins Streamline Icon: https://streamlinehq.com</desc><title>Jenkins</title><path d="M2.2736666666666667 19h-0.7718750000000001a3.0605833333333337 3.0605833333333337 0 0 1 -0.05541666666666668 -0.15595833333333337c-0.17020833333333335 -0.5272500000000001 -0.47025 -1.1795833333333334 -0.5478333333333334 -1.7052500000000002 -0.11558333333333334 -0.779 0.6175 -0.8225416666666667 1.0877500000000002 -1.1597916666666668 0.7243750000000001 -0.5225000000000001 1.294375 -0.8114583333333334 2.0797083333333335 -1.2825000000000002 0.23354166666666668 -0.14170833333333335 0.9357500000000001 -0.49400000000000005 1.014125 -0.6562916666666667 0.15912500000000002 -0.323 -0.273125 -0.7774166666666668 -0.3879166666666667 -1.0291666666666668 -0.17812500000000003 -0.40137500000000004 -0.273125 -0.7417916666666667 -0.2976666666666667 -1.1360416666666668 -0.6523333333333333 -0.10291666666666668 -1.1518750000000002 -0.49637500000000007 -1.4598333333333335 -0.9381250000000001 -0.49875 -0.7322916666666668 -0.8439166666666668 -2.0860416666666666 -0.4156250000000001 -3.116 0.035625000000000004 -0.08154166666666667 0.20108333333333336 -0.24145833333333336 0.225625 -0.3665416666666667 0.0475 -0.24383333333333335 -0.083125 -0.5700000000000001 -0.095 -0.8296666666666668 -0.0475 -1.3395000000000001 0.22483333333333333 -2.4937500000000004 1.128125 -2.8975000000000004 0.3665416666666667 -1.4566666666666668 1.672791666666667 -1.9419583333333335 2.9077916666666668 -2.665541666666667 0.45916666666666667 -0.27075000000000005 0.9690000000000001 -0.44491666666666674 1.49625 -0.6388750000000001 1.8778333333333335 -0.6942916666666668 4.771375000000001 -0.5636666666666666 6.3285833333333334 0.6198750000000001 0.6618333333333334 0.501125 1.722666666666667 1.5595833333333335 2.102666666666667 2.3267083333333334 0.9990833333333334 2.0227083333333336 0.92625 5.403125000000001 0.22720833333333335 7.864416666666667 -0.095 0.3332916666666667 -0.22958333333333333 0.8170000000000001 -0.4219583333333334 1.213625 -0.133 0.27708333333333335 -0.5454583333333334 0.8312500000000002 -0.49479166666666674 1.0766666666666669 0.05066666666666667 0.24858333333333335 0.9420833333333334 0.92625 1.1336666666666668 1.104375 0.34358333333333335 0.33408333333333334 0.9975 0.7718750000000001 1.048166666666667 1.1875 0.05541666666666668 0.4409583333333334 -0.19633333333333336 1.0576666666666668 -0.32458333333333333 1.4843750000000002 -0.17179166666666668 0.5707916666666667 -0.3451666666666667 1.1407916666666669 -0.51775 1.6870416666666666H2.2720833333333337zm8.790666666666667 -2.8025c-0.4314583333333334 -0.23750000000000002 -1.0774583333333334 -0.4924166666666667 -1.6347916666666669 -0.5992916666666668 -0.6887500000000001 -0.12983333333333336 -0.6175 0.9405 -0.59375 1.5785833333333334 0.02375 0.5090416666666667 0.28500000000000003 1.0418333333333334 0.40375000000000005 1.3806666666666667 0.060166666666666674 0.15595833333333337 0.07125000000000001 0.32458333333333333 0.2026666666666667 0.3554583333333334 0.23750000000000002 0.053833333333333344 1.0212500000000002 -0.2580833333333334 1.2468750000000002 -0.37920833333333337 0.47500000000000003 -0.2596666666666667 0.8423333333333335 -0.6681666666666667 1.2460833333333334 -0.9412916666666667 0.012666666666666668 -0.13458333333333336 0.012666666666666668 -0.2691666666666667 0.02375 -0.40216666666666673a2.096333333333334 2.096333333333334 0 0 0 -0.8668750000000001 -0.21929166666666672c0.24858333333333335 -0.11875000000000001 0.59375 -0.11875000000000001 0.819375 -0.26283333333333336l0.012666666666666668 -0.1527916666666667c-0.3926666666666667 -0.02375 -0.54625 -0.20108333333333336 -0.8082916666666666 -0.3451666666666667zm5.901083333333333 2.323541666666667a14.075833333333335 14.075833333333335 0 0 0 0.36812500000000004 -1.3870000000000002c0.0475 -0.22720833333333335 0.17020833333333335 -0.7267500000000001 0.14091666666666666 -0.931 -0.04670833333333334 -0.36337500000000006 -0.5415000000000001 -0.6325416666666668 -0.7948333333333334 -0.8597500000000001 -0.4623333333333334 -0.4156250000000001 -0.7520833333333333 -0.7718750000000001 -1.235 -1.1629583333333335 -0.19712500000000002 0.296875 -0.6175 0.48687500000000006 -0.7782083333333334 0.7235833333333335 1.145541666666667 -0.5454583333333334 1.35375 2.078125 0.9032916666666667 2.92125 0.07125000000000001 0.26045833333333335 0.3095416666666667 0.35625000000000007 0.4069166666666667 0.581875l-0.06808333333333333 0.13141666666666668h1.0212500000000002c0.010291666666666668 0 0.02375 0 0.034833333333333334 0.011083333333333334zm-5.251916666666667 -0.009500000000000001c-0.03958333333333334 -0.058583333333333334 -0.07916666666666668 -0.10687500000000001 -0.11875000000000001 -0.16545833333333335l-0.23829166666666668 0.154375h0.35625000000000007zm2.192916666666667 0c0.006333333333333334 -0.16545833333333335 0.01425 -0.31983333333333336 0.02375 -0.4734166666666667 -0.4195833333333334 0.022958333333333338 -0.6531250000000001 -0.38 -0.9468333333333334 -0.4172083333333334 -0.2565 -0.035625000000000004 -0.47500000000000003 0.28579166666666667 -0.8075000000000001 0.154375 -0.07520833333333334 0.083125 -0.144875 0.17970833333333336 -0.22483333333333333 0.2501666666666667 0.12191666666666667 0.14250000000000002 0.23354166666666668 0.296875 0.33566666666666667 0.4623333333333334h0.6452083333333334c0.011083333333333334 -0.12983333333333336 0.10687500000000001 -0.225625 0.23750000000000002 -0.225625 0.13062500000000002 0 0.22483333333333333 0.09579166666666668 0.22483333333333333 0.21375000000000002h0.5225000000000001zm1.675166666666667 0c-0.24858333333333335 -0.37920833333333337 -0.7497083333333334 -0.7109166666666668 -1.33 -0.43937500000000007l-0.02375 0.42829166666666674h1.35375zm-6.7370833333333335 0 -0.08233333333333334 -0.2723333333333333c-0.17812500000000003 -0.5700000000000001 -0.28500000000000003 -0.9975 -0.32062500000000005 -1.33 -0.7235833333333335 -0.3451666666666667 -1.4843750000000002 -0.6887500000000001 -2.1010833333333334 -1.1289166666666668 -0.11875000000000001 -0.083125 -0.8779583333333334 -1.06875 -0.9737500000000001 -1.033125 -1.3767083333333336 0.5351666666666668 -2.6592083333333334 1.4725000000000001 -3.811083333333334 2.3623333333333334 0.2026666666666667 0.4409583333333334 0.38 0.9032916666666667 0.54625 1.3775000000000002h6.733125000000001zm6.543125000000001 -1.672791666666667c-0.022958333333333338 -0.4053333333333334 -0.12983333333333336 -1.235 -0.38 -1.3775000000000002 -0.5225000000000001 -0.30875 -1.4614166666666668 0.6175 -1.8525 0.7465416666666667 0.035625000000000004 0.11875000000000001 0.10687500000000001 0.2145416666666667 0.11875000000000001 0.38 0.225625 -0.058583333333333334 0.5106250000000001 -0.022958333333333338 0.7109166666666668 0.07283333333333333 -0.23670833333333335 0.02375 -0.4979583333333334 0.02375 -0.6523333333333333 0.12983333333333336 -0.058583333333333334 0.154375 0.012666666666666668 0.38 -0.022958333333333338 0.6048333333333334 0.54625 0.15595833333333337 1.1875 0.239875 1.888125 0.26283333333333336 0.12983333333333336 -0.17970833333333336 0.17812500000000003 -0.5106250000000001 0.16704166666666667 -0.8565833333333335zm-3.2300000000000004 -0.28500000000000003c-0.034833333333333334 0.296875 0.03641666666666667 0.40375000000000005 0.095 0.7465416666666667 0.9975 0.3095416666666667 0.8185833333333334 -1.3775000000000002 -0.10687500000000001 -0.7592083333333334zM6.9350000000000005 15.437500000000002c-0.35625000000000007 0.36179166666666673 1.0054166666666668 0.8565833333333335 1.4360833333333336 0.8827083333333334 0 -0.22958333333333333 0.13062500000000002 -0.4465 0.10687500000000001 -0.6095833333333334 -0.5145833333333334 -0.09341666666666668 -1.1890833333333335 -0.03325 -1.539791666666667 -0.27470833333333333zm4.405625000000001 0.17020833333333335c0 0.034041666666666665 -0.04829166666666667 0.02375 -0.053833333333333344 0.05066666666666667 0.45916666666666667 0.3570416666666667 0.8027500000000001 0.4314583333333334 1.4265833333333335 0.40375000000000005 0.28025 -0.2074166666666667 0.5304166666666668 -0.4457083333333333 0.8257083333333334 -0.6388750000000001 -0.676875 0.058583333333333334 -1.5287083333333336 0.4805416666666667 -2.1960833333333336 0.18208333333333335zm2.7075 -14.033083333333334c-1.2714166666666669 -0.71725 -3.44375 -1.2595416666666668 -4.8101666666666665 -0.5787083333333334 -1.0925 0.5478333333333334 -2.58875 1.4566666666666668 -3.0867083333333336 2.6061666666666667 0.47500000000000003 1.1099166666666667 -0.13141666666666668 2.1264166666666666 -0.1789166666666667 3.252958333333334 -0.01425 0.5992916666666668 0.28500000000000003 1.1241666666666668 0.3095416666666667 1.774916666666667 -0.15833333333333335 0.2675833333333334 -0.6531250000000001 0.30083333333333334 -0.9975 0.2818333333333333 -0.11558333333333334 -0.577125 -0.3166666666666667 -1.2262916666666668 -0.9143750000000002 -1.2904166666666668 -0.8423333333333335 -0.09183333333333335 -1.460625 0.6048333333333334 -1.49625 1.332375 -0.0475 0.8550000000000001 0.6594583333333334 2.2673333333333336 1.6506250000000002 2.173125 0.38633333333333336 -0.03641666666666667 0.4813333333333334 -0.42750000000000005 0.9017083333333334 -0.42750000000000005 0.225625 0.45125 -0.3522916666666667 0.59375 -0.4140416666666667 0.9135833333333333 -0.012666666666666668 0.083125 0.0475 0.4045416666666667 0.08233333333333334 0.558125 0.18445833333333336 0.7473333333333334 0.5890000000000001 1.7100000000000002 0.9856250000000002 2.2800000000000002 0.5027083333333334 0.7125000000000001 1.4915 0.8320416666666667 2.556291666666667 0.9032916666666667 0.19 -0.4156250000000001 0.8906250000000001 -0.38 1.3505833333333335 -0.2739166666666667 -0.5470416666666666 -0.21375000000000002 -1.0576666666666668 -0.748125 -1.4843750000000002 -1.2104583333333334 -0.48687500000000006 -0.5351666666666668 -0.9737500000000001 -1.11625 -0.9982916666666667 -1.805 0.9143750000000002 1.2698333333333336 1.6625000000000003 2.375 3.3250000000000006 2.9323333333333337 1.2587500000000003 0.4156250000000001 2.73125 -0.20108333333333336 3.6923333333333335 -0.8779583333333334 0.40375000000000005 -0.28420833333333334 0.6420416666666667 -0.7362500000000001 0.92625 -1.1392083333333334 1.06875 -1.5326666666666668 1.5675000000000001 -3.7287500000000002 1.4614166666666668 -5.853583333333334 -0.0475 -0.8795416666666668 -0.0475 -1.7582916666666668 -0.3451666666666667 -2.3393750000000004 -0.3079583333333334 -0.6182916666666668 -1.3418750000000002 -1.1645416666666668 -1.9593750000000003 -0.6182916666666668 -0.11875000000000001 -0.6048333333333334 0.49875 -0.9737500000000001 1.223125 -0.76 -0.5225000000000001 -0.6760833333333334 -1.0576666666666668 -1.4709166666666669 -1.7939166666666668 -1.8873333333333335zM10.750833333333334 11.792666666666669c0.48687500000000006 1.2223333333333335 2.1565000000000003 1.0790416666666667 3.5664583333333337 1.0473750000000002 -0.0665 0.15358333333333335 -0.2026666666666667 0.34437500000000004 -0.36812500000000004 0.4077083333333334 -0.45125 0.1836666666666667 -1.698125 0.323 -2.325125 -0.009500000000000001 -0.4005833333333334 -0.21375000000000002 -0.6523333333333333 -0.6911250000000001 -0.8724166666666668 -0.9713750000000002 -0.10845833333333335 -0.13616666666666666 -0.6293750000000001 -0.4813333333333334 -0.009500000000000001 -0.482125zm0.12983333333333336 -0.6887500000000001c0.7069583333333335 0.3673333333333334 1.995 0.4092916666666667 2.9537083333333336 0.38 0.052250000000000005 0.21137500000000004 0.052250000000000005 0.46945833333333337 0.053833333333333344 0.7227916666666667 -1.2270833333333335 0.06333333333333334 -2.6805833333333338 -0.2406666666666667 -3.0035833333333337 -1.104375h-0.003958333333333334zm5.284375000000001 -0.4639166666666667c-0.37445833333333334 0.7125000000000001 -0.9064583333333335 1.5017916666666669 -2.010041666666667 1.5263333333333333 -0.018208333333333333 -0.22483333333333333 -0.035625000000000004 -0.581875 0 -0.7156666666666668 0.8423333333333335 -0.08154166666666667 1.3672083333333336 -0.5114166666666667 2.0132083333333335 -0.805125zm-0.5137916666666668 -0.5280416666666667c-0.8075000000000001 0.5225000000000001 -1.7052500000000002 1.0885416666666667 -3.0273333333333334 0.9579166666666667 -0.277875 -0.2454166666666667 -0.38395833333333335 -0.7916666666666667 -0.11083333333333335 -1.15425 0.14329166666666668 0.2477916666666667 0.0475 0.700625 0.45125 0.7679166666666667 0.7473333333333334 0.13062500000000002 1.6134166666666667 -0.45837500000000003 2.1612500000000003 -0.665 0.3325 -0.5644583333333334 -0.03641666666666667 -0.7726666666666667 -0.3325 -1.1344583333333336 -0.6190833333333334 -0.7362500000000001 -1.4487500000000002 -1.6625000000000003 -1.4265833333333335 -2.77875 0.24858333333333335 -0.17733333333333334 0.2739166666666667 0.2739166666666667 0.3095416666666667 0.35625000000000007 0.31983333333333336 0.76 1.1273333333333333 1.721875 1.7210833333333335 2.375 0.14250000000000002 0.16625 0.38 0.30875 0.40375000000000005 0.4148333333333334 0.07283333333333333 0.30875 -0.20108333333333336 0.6760833333333334 -0.16545833333333335 0.8787500000000001zm-10.639208333333334 -0.534375c-0.24858333333333335 -0.14566666666666667 -0.31112500000000004 -0.7837500000000001 -0.6080000000000001 -0.7995833333333334 -0.4235416666666667 -0.02375 -0.34675000000000006 0.8312500000000002 -0.3451666666666667 1.33 -0.2929166666666667 -0.26125000000000004 -0.34437500000000004 -1.0806250000000002 -0.12983333333333336 -1.49625 -0.24383333333333335 -0.11875000000000001 -0.3522916666666667 0.12983333333333336 -0.48925 0.22483333333333333 0.1741666666666667 -1.2587500000000003 1.8525 -0.5810833333333334 1.575416666666667 0.76zM3.7311250000000005 4.746041666666668c-0.5422916666666667 0.5985 -0.42750000000000005 1.7210833333333335 -0.36337500000000006 2.5238333333333336 0.9848333333333334 -0.6214583333333334 2.2942500000000003 0.0475 2.282375 1.1035833333333334 0.4710416666666667 -0.012666666666666668 0.17654166666666668 -0.5890000000000001 0.09104166666666667 -0.9618750000000001 -0.27945833333333336 -1.209666666666667 0.4686666666666667 -2.523041666666667 0.03245833333333334 -3.63375 -0.8423333333333335 0.0665 -1.5350416666666669 0.41166666666666674 -2.040916666666667 0.9618750000000001zm7.22 0.881125c0.24304166666666668 0.44491666666666674 0.31983333333333336 0.9088333333333334 0.665 1.242916666666667 0.154375 0.15041666666666667 0.4544166666666667 0.33566666666666667 0.30637500000000006 0.7520833333333333 -0.035625000000000004 0.09579166666666668 -0.2889583333333334 0.3095416666666667 -0.4362083333333334 0.35625000000000007 -0.5335833333333334 0.154375 -1.7844166666666668 0.02375 -1.3624583333333335 -0.6412500000000001 0.4457083333333333 0.011875 1.0402500000000001 0.28500000000000003 1.3711666666666669 -0.035625000000000004 -0.24858333333333335 -0.4148333333333334 -0.700625 -1.2112500000000002 -0.5335833333333334 -1.68625zm4.906750000000001 -0.010291666666666668h0.053833333333333344c0.26125000000000004 0.5288333333333334 0.47500000000000003 1.0885416666666667 0.7948333333333334 1.5556250000000003 -0.21375000000000002 0.4971666666666667 -1.6252916666666668 0.9420833333333334 -1.6015416666666669 0.045125000000000005 0.30875 -0.13458333333333336 0.8312500000000002 -0.02770833333333334 1.104375 -0.19791666666666669 -0.1527916666666667 -0.44016666666666676 -0.38 -0.7964166666666668 -0.34358333333333335 -1.4020416666666666zm-5.483875 -1.2801250000000002c-1.12575 -0.26125000000000004 -1.6870416666666666 0.4686666666666667 -2.026666666666667 1.2294583333333333 -0.30400000000000005 -0.07441666666666667 -0.18287500000000004 -0.48687500000000006 -0.10687500000000001 -0.6990416666666668 0.20187500000000003 -0.5549583333333333 1.0133333333333334 -1.2927916666666668 1.677541666666667 -1.19225 0.28420833333333334 0.045125000000000005 0.6713333333333333 0.3055833333333334 0.456 0.66025zM7.63325 1.261125c-1.235 0.3483333333333334 -2.818333333333334 1.2460833333333334 -3.3250000000000006 2.354416666666667 0.39187500000000003 -0.05541666666666668 0.665 -0.25412500000000005 1.0529166666666667 -0.277875 0.14725000000000002 -0.012666666666666668 0.3388333333333334 0.058583333333333334 0.5074583333333333 0.011875 0.33566666666666667 -0.08233333333333334 0.6175 -0.843125 0.8724166666666668 -1.11625 0.2454166666666667 -0.273125 0.5422916666666667 -0.3926666666666667 0.7441666666666666 -0.6412500000000001 0.13220833333333334 -0.07125000000000001 0.3237916666666667 -0.058583333333333334 0.3325 -0.26125000000000004 -0.05779166666666667 -0.059375000000000004 -0.11875000000000001 -0.10687500000000001 -0.1836666666666667 -0.083125v0.013458333333333336z"></path></svg>