<svg role="img" viewBox="-0.5 -0.5 20 20" xmlns="http://www.w3.org/2000/svg" id="Jira--Streamline-Simple-Icons" height="20" width="20"><desc>Jira Streamline Icon: https://streamlinehq.com</desc><title>Jira</title><path d="M9.160375 9.114458333333333H0a4.130916666666667 4.130916666666667 0 0 0 4.142 4.128541666666667h1.68625v1.6284583333333333A4.128541666666667 4.128541666666667 0 0 0 9.955208333333333 19V9.910083333333334a0.795625 0.795625 0 0 0 -0.795625 -0.795625zm4.530708333333334 -4.5568333333333335H4.541a4.128541666666667 4.128541666666667 0 0 0 4.128541666666667 4.127750000000001h1.6854583333333335v1.62925a4.130916666666667 4.130916666666667 0 0 0 4.128541666666667 4.127750000000001V5.350083333333334a0.7924583333333334 0.7924583333333334 0 0 0 -0.7924583333333334 -0.7924583333333334zM18.218625000000003 0H9.068541666666668a4.128541666666667 4.128541666666667 0 0 0 4.128541666666667 4.128541666666667h1.6854583333333335v1.6284583333333333A4.128541666666667 4.128541666666667 0 0 0 19 9.882375000000001V0.795625A0.7924583333333334 0.7924583333333334 0 0 0 18.218625000000003 0Z" fill="blue" stroke-width="1"></path></svg>