<svg role="img" viewBox="-0.5 -0.5 20 20" xmlns="http://www.w3.org/2000/svg" id="Kubernetes--Streamline-Simple-Icons" height="20" width="20"><desc>Kubernetes Streamline Icon: https://streamlinehq.com</desc><title>Kubernetes</title><path d="m8.078166666666668 11.360416666666667 0.005541666666666667 0.007916666666666667 -0.7908750000000001 1.9102916666666667a4.093708333333334 4.093708333333334 0 0 1 -1.6427083333333337 -2.0559583333333333l2.040916666666667 -0.34595833333333337 0.003166666666666667 0.003958333333333334a0.3483333333333334 0.3483333333333334 0 0 1 0.3831666666666667 0.47975zm-0.6594583333333334 -1.6854583333333335a0.3483333333333334 0.3483333333333334 0 0 0 0.13695833333333335 -0.5985l0.0015833333333333335 -0.008708333333333334L6.004791666666668 7.679166666666667a4.071541666666667 4.071541666666667 0 0 0 -0.5779166666666667 2.5768750000000002l1.99025 -0.5739583333333333 0.0015833333333333335 -0.007125zm0.9064583333333335 -1.5675000000000001a0.3483333333333334 0.3483333333333334 0 0 0 0.5533750000000001 -0.2667916666666667l0.007916666666666667 -0.003958333333333334 0.11875000000000001 -2.074166666666667a4.072333333333334 4.072333333333334 0 0 0 -2.3829166666666666 1.1415833333333334l1.6997083333333334 1.2057083333333334 0.003166666666666667 -0.0015833333333333335zm0.6016666666666667 2.1770833333333335 0.5723750000000001 0.27629166666666666 0.5715833333333333 -0.27470833333333333 0.14250000000000002 -0.6175 -0.39583333333333337 -0.49320833333333336h-0.6365000000000001l-0.39583333333333337 0.49320833333333336 0.14170833333333335 0.6167083333333334zm1.1875 -2.4502083333333338a0.3483333333333334 0.3483333333333334 0 0 0 0.5541666666666667 0.266l0.006333333333333334 0.0023750000000000004 1.6894166666666668 -1.1977916666666668a4.107166666666667 4.107166666666667 0 0 0 -2.368666666666667 -1.1415833333333334l0.11716666666666667 2.070208333333334 0.0015833333333333335 0.0007916666666666668zm8.610166666666666 4.72625 -4.570291666666667 5.684958333333334a1.2666666666666668 1.2666666666666668 0 0 1 -0.9880000000000001 0.47025l-7.331625 0.0023750000000000004a1.2666666666666668 1.2666666666666668 0 0 1 -0.9872083333333335 -0.4718333333333334l-4.572666666666667 -5.684166666666667a1.2532083333333335 1.2532083333333335 0 0 1 -0.24304166666666668 -1.0608333333333335L1.6625000000000003 4.411958333333334c0.0855 -0.3720833333333333 0.33645833333333336 -0.684 0.6832083333333334 -0.8494583333333334L8.949791666666668 0.40612500000000007a1.2714166666666669 1.2714166666666669 0 0 1 1.0964583333333335 0l6.606458333333334 3.1547916666666667c0.34675000000000006 0.16545833333333335 0.5977083333333334 0.4781666666666667 0.6832083333333334 0.8494583333333334l1.6324166666666666 7.089375c0.0855 0.3720833333333333 -0.003958333333333334 0.762375 -0.24383333333333335 1.0608333333333335zm-2.603791666666667 -1.6284583333333333c-0.03325 -0.007916666666666667 -0.08154166666666667 -0.020583333333333335 -0.11479166666666667 -0.026916666666666672 -0.13775 -0.026125000000000002 -0.249375 -0.01979166666666667 -0.37920833333333337 -0.030083333333333337 -0.27708333333333335 -0.029291666666666667 -0.5050833333333334 -0.053041666666666674 -0.7085416666666667 -0.11716666666666667 -0.083125 -0.03166666666666667 -0.14250000000000002 -0.13062500000000002 -0.171 -0.171l-0.15912500000000002 -0.04670833333333334a5.10625 5.10625 0 0 0 -0.083125 -1.8461666666666667 5.118125 5.118125 0 0 0 -0.7410000000000001 -1.712375c0.04116666666666667 -0.037208333333333336 0.11875000000000001 -0.10529166666666669 0.140125 -0.12587500000000001 0.006333333333333334 -0.07125000000000001 0.0007916666666666668 -0.144875 0.07441666666666667 -0.22325 0.15595833333333337 -0.14645833333333336 0.35150000000000003 -0.2675833333333334 0.5882083333333333 -0.41325000000000006 0.11241666666666666 -0.0665 0.21612500000000004 -0.10845833333333335 0.3285416666666667 -0.19158333333333336 0.025333333333333336 -0.019000000000000003 0.060166666666666674 -0.04908333333333334 0.08708333333333335 -0.07045833333333333 0.19 -0.15120833333333336 0.23354166666666668 -0.41166666666666674 0.097375 -0.5826666666666667 -0.13616666666666666 -0.171 -0.4005833333333334 -0.18683333333333335 -0.5897916666666667 -0.035625000000000004 -0.026916666666666672 0.021375 -0.06333333333333334 0.04908333333333334 -0.08787500000000001 0.06966666666666667 -0.10608333333333335 0.09183333333333335 -0.17179166666666668 0.18208333333333335 -0.26125000000000004 0.27708333333333335 -0.19475 0.19791666666666669 -0.35625000000000007 0.36258333333333337 -0.5327916666666668 0.482125 -0.07679166666666667 0.044333333333333336 -0.18920833333333334 0.029291666666666667 -0.239875 0.026125000000000002l-0.15041666666666667 0.10687500000000001a5.1814583333333335 5.1814583333333335 0 0 0 -3.2822500000000003 -1.5857083333333335l-0.009500000000000001 -0.17654166666666668c-0.05145833333333334 -0.04908333333333334 -0.11320833333333334 -0.09104166666666667 -0.1290416666666667 -0.19791666666666669 -0.017416666666666667 -0.2121666666666667 0.011875 -0.4409583333333334 0.045125000000000005 -0.7164583333333334 0.018208333333333333 -0.1290416666666667 0.04829166666666667 -0.2359166666666667 0.053833333333333344 -0.37604166666666666 0.0007916666666666668 -0.03166666666666667 -0.0007916666666666668 -0.07837500000000001 -0.0007916666666666668 -0.11241666666666666 0 -0.24225000000000002 -0.17733333333333334 -0.43937500000000007 -0.39583333333333337 -0.43937500000000007 -0.21770833333333336 0 -0.3950416666666667 0.19712500000000002 -0.3950416666666667 0.43937500000000007l0.0007916666666666668 0.011083333333333334c0 0.03245833333333334 -0.0015833333333333335 0.07283333333333333 0 0.10133333333333334 0.004750000000000001 0.140125 0.034833333333333334 0.24700000000000003 0.053041666666666674 0.37604166666666666 0.03325 0.2755 0.061750000000000006 0.5042916666666667 0.044333333333333336 0.71725a0.4314583333333334 0.4314583333333334 0 0 1 -0.12825 0.20425000000000001l-0.009500000000000001 0.16704166666666667a5.0856666666666674 5.0856666666666674 0 0 0 -3.298083333333334 1.5857083333333335 6.628625 6.628625 0 0 1 -0.14250000000000002 -0.10133333333333334c-0.07125000000000001 0.009500000000000001 -0.14250000000000002 0.03166666666666667 -0.235125 -0.022958333333333338 -0.17654166666666668 -0.11875000000000001 -0.3380416666666667 -0.2834166666666667 -0.5327916666666668 -0.4813333333333334 -0.08945833333333335 -0.095 -0.154375 -0.18525000000000003 -0.26045833333333335 -0.27629166666666666 -0.02375 -0.020583333333333335 -0.06095833333333334 -0.04908333333333334 -0.08787500000000001 -0.06966666666666667a0.47025 0.47025 0 0 0 -0.2755 -0.10450000000000001 0.3807916666666667 0.3807916666666667 0 0 0 -0.3150833333333334 0.13933333333333334c-0.13616666666666666 0.171 -0.09262500000000001 0.4322500000000001 0.097375 0.5834583333333334l0.005541666666666667 0.003958333333333334 0.08233333333333334 0.06570833333333334c0.11241666666666666 0.083125 0.21533333333333338 0.12587500000000001 0.32775000000000004 0.19158333333333336 0.23670833333333335 0.14645833333333336 0.4322500000000001 0.2675833333333334 0.5882083333333333 0.41325000000000006 0.060166666666666674 0.06491666666666668 0.07125000000000001 0.1789166666666667 0.07916666666666668 0.228l0.12666666666666668 0.11320833333333334a5.11575 5.11575 0 0 0 -0.8075000000000001 3.5672500000000005l-0.16466666666666668 0.0475c-0.04354166666666667 0.057 -0.10529166666666669 0.14566666666666667 -0.17020833333333335 0.17179166666666668 -0.20345833333333335 0.064125 -0.4322500000000001 0.08708333333333335 -0.7085416666666667 0.116375 -0.12983333333333336 0.011083333333333334 -0.24145833333333336 0.004750000000000001 -0.38 0.030875000000000003 -0.029291666666666667 0.005541666666666667 -0.07125000000000001 0.015833333333333335 -0.10529166666666669 0.02375l-0.003166666666666667 0.0015833333333333335 -0.005541666666666667 0.0015833333333333335c-0.23354166666666668 0.05620833333333333 -0.3831666666666667 0.27075000000000005 -0.33487500000000003 0.4813333333333334 0.04829166666666667 0.21137500000000004 0.27629166666666666 0.339625 0.5106250000000001 0.2889583333333334l0.005541666666666667 -0.0007916666666666668 0.007916666666666667 -0.0023750000000000004 0.10212500000000001 -0.022958333333333338c0.13458333333333336 -0.03641666666666667 0.23275 -0.08945833333333335 0.3546666666666667 -0.13616666666666666 0.26125000000000004 -0.09341666666666668 0.4781666666666667 -0.17179166666666668 0.6887500000000001 -0.2026666666666667 0.08866666666666667 -0.007125 0.18208333333333335 0.05462500000000001 0.228 0.07995833333333334l0.17179166666666668 -0.029291666666666667a5.145833333333334 5.145833333333334 0 0 0 2.2800000000000002 2.8468333333333335l-0.07125000000000001 0.17258333333333334c0.026125000000000002 0.0665 0.05462500000000001 0.1575416666666667 0.034833333333333334 0.22325 -0.07679166666666667 0.1995 -0.20820833333333336 0.4092916666666667 -0.3578333333333334 0.643625 -0.07204166666666667 0.10766666666666669 -0.14645833333333336 0.19158333333333336 -0.2121666666666667 0.3158750000000001 -0.015833333333333335 0.029291666666666667 -0.035625000000000004 0.07520833333333334 -0.05066666666666667 0.10608333333333335 -0.10133333333333334 0.21770833333333336 -0.026916666666666672 0.46787500000000004 0.16862500000000002 0.5620833333333334 0.19633333333333336 0.095 0.44016666666666676 -0.005541666666666667 0.54625 -0.22325v-0.0015833333333333335c0.015833333333333335 -0.030875000000000003 0.03641666666666667 -0.07125000000000001 0.04908333333333334 -0.10054166666666668 0.05541666666666668 -0.12825 0.07441666666666667 -0.23829166666666668 0.114 -0.36258333333333337 0.10450000000000001 -0.26283333333333336 0.16229166666666667 -0.5383333333333334 0.30637500000000006 -0.7101250000000001 0.03958333333333334 -0.0475 0.10291666666666668 -0.06491666666666668 0.17020833333333335 -0.083125l0.08945833333333335 -0.16229166666666667a5.108625000000001 5.108625000000001 0 0 0 3.648791666666667 0.009500000000000001l0.08391666666666667 0.15200000000000002c0.06808333333333333 0.022166666666666668 0.14250000000000002 0.03325 0.2026666666666667 0.12270833333333335 0.10766666666666669 0.1836666666666667 0.18129166666666668 0.40137500000000004 0.27075000000000005 0.665 0.03958333333333334 0.12350000000000001 0.058583333333333334 0.23354166666666668 0.11479166666666667 0.36179166666666673 0.012666666666666668 0.029291666666666667 0.034041666666666665 0.07125000000000001 0.04908333333333334 0.10212500000000001 0.10529166666666669 0.21850000000000003 0.3499166666666667 0.31825000000000003 0.54625 0.22325 0.19554166666666667 -0.09341666666666668 0.26995833333333336 -0.34437500000000004 0.16862500000000002 -0.5620833333333334 -0.015833333333333335 -0.030875000000000003 -0.035625000000000004 -0.07600000000000001 -0.05145833333333334 -0.10608333333333335 -0.06570833333333334 -0.12350000000000001 -0.140125 -0.20662500000000003 -0.2121666666666667 -0.3150833333333334 -0.15041666666666667 -0.23433333333333334 -0.2739166666666667 -0.42829166666666674 -0.35070833333333334 -0.6277916666666667 -0.03166666666666667 -0.10291666666666668 0.005541666666666667 -0.16625 0.030083333333333337 -0.23275 -0.01425 -0.017416666666666667 -0.04670833333333334 -0.114 -0.06570833333333334 -0.15991666666666668a5.145041666666667 5.145041666666667 0 0 0 2.2800000000000002 -2.8674166666666667c0.05066666666666667 0.007916666666666667 0.13933333333333334 0.02375 0.16862500000000002 0.030083333333333337 0.059375000000000004 -0.03958333333333334 0.114 -0.09025000000000001 0.2216666666666667 -0.08233333333333334 0.21058333333333337 0.030875000000000003 0.42750000000000005 0.10925000000000001 0.6887500000000001 0.2026666666666667 0.12191666666666667 0.0475 0.21929166666666672 0.10133333333333334 0.3546666666666667 0.13695833333333335 0.0285 0.007916666666666667 0.06966666666666667 0.015041666666666668 0.10291666666666668 0.022166666666666668l0.007125 0.0023750000000000004 0.005541666666666667 0.0007916666666666668c0.235125 0.05066666666666667 0.4623333333333334 -0.07758333333333334 0.5106250000000001 -0.2889583333333334 0.0475 -0.21058333333333337 -0.10133333333333334 -0.4251250000000001 -0.33487500000000003 -0.4813333333333334zM12.983333333333334 7.679958333333334l-1.5437500000000002 1.3822500000000002v0.003958333333333334a0.3483333333333334 0.3483333333333334 0 0 0 0.13695833333333335 0.5992916666666668l0.0023750000000000004 0.007916666666666667 1.9997500000000001 0.5763333333333334a4.115875 4.115875 0 0 0 -0.0855 -1.32525A4.123 4.123 0 0 0 12.983333333333334 7.679166666666667zm-3.1769583333333338 4.215625a0.34595833333333337 0.34595833333333337 0 0 0 -0.31983333333333336 -0.1836666666666667 0.3483333333333334 0.3483333333333334 0 0 0 -0.29450000000000004 0.18445833333333336h-0.0015833333333333335l-1.0038333333333334 1.8145a4.088166666666667 4.088166666666667 0 0 0 2.6330833333333334 0.0023750000000000004l-1.0054166666666668 -1.8176666666666668h-0.007916666666666667zm1.4946666666666668 -1.023625a0.3483333333333334 0.3483333333333334 0 0 0 -0.21375000000000002 0.0285 0.3483333333333334 0.3483333333333334 0 0 0 -0.1694166666666667 0.45283333333333337l-0.0023750000000000004 0.003166666666666667 0.7995833333333334 1.9300833333333336a4.077083333333334 4.077083333333334 0 0 0 1.6474583333333335 -2.070208333333334l-2.0583333333333336 -0.3483333333333334 -0.003166666666666667 0.003958333333333334z" fill="#3970e4" ></path></svg>