<svg role="img" viewBox="-0.5 -0.5 20 20" xmlns="http://www.w3.org/2000/svg" id="Prometheus--Streamline-Simple-Icons" height="16" width="16"><desc>Prometheus Streamline Icon: https://streamlinehq.com</desc><title>Prometheus</title><path d="M9.5 0C4.253625 0 0 4.252833333333333 0 9.5c0 5.2463750000000005 4.253625 9.5 9.5 9.5s9.5 -4.253625 9.5 -9.5c0 -5.247166666666668 -4.253625 -9.5 -9.5 -9.5zm0 17.780833333333337c-1.4922916666666668 0 -2.7027500000000004 -0.9975 -2.7027500000000004 -2.2277500000000003h5.405500000000001c0 1.2294583333333333 -1.209666666666667 2.2269583333333336 -2.7027500000000004 2.2269583333333336zm4.465 -2.964791666666667H5.035000000000001v-1.61975h8.93v1.61975zm-0.03166666666666667 -2.4525833333333336H5.059541666666667c-0.029291666666666667 -0.034041666666666665 -0.059375000000000004 -0.06808333333333333 -0.08787500000000001 -0.10291666666666668 -0.9143750000000002 -1.1091250000000001 -1.1297083333333335 -1.6886250000000003 -1.3379166666666666 -2.2792083333333335 -0.003958333333333334 -0.01979166666666667 1.1083333333333334 0.22720833333333335 1.8960416666666668 0.4045416666666667 0 0 0.40612500000000007 0.09420833333333334 0.9990833333333334 0.20187500000000003 -0.5700000000000001 -0.667375 -0.9080416666666667 -1.5160416666666667 -0.9080416666666667 -2.3829166666666666 0 -1.9047500000000004 1.460625 -3.5688333333333335 0.9341666666666667 -4.913875 0.513 0.041958333333333334 1.0608333333333335 1.0822083333333334 1.0980416666666668 2.7090833333333335 0.5454583333333334 -0.7528750000000001 0.7734583333333334 -2.1295833333333336 0.7734583333333334 -2.9727083333333337 0 -0.8732083333333334 0.5755416666666667 -1.888125 1.1510833333333335 -1.9229583333333333 -0.513 0.8462916666666667 0.133 1.5706666666666669 0.7077500000000001 3.369333333333334 0.21533333333333338 0.6760833333333334 0.18762500000000001 1.812916666666667 0.35387500000000005 2.5341250000000004 0.05541666666666668 -1.4978333333333333 0.31270833333333337 -3.682833333333334 1.2627083333333333 -4.437291666666668 -0.41879166666666673 0.9500000000000001 0.06254166666666668 2.1390833333333337 0.39108333333333334 2.710666666666667 0.5312083333333334 0.9215 0.8534166666666668 1.620541666666667 0.8534166666666668 2.9418333333333337a3.6749166666666673 3.6749166666666673 0 0 1 -0.8787500000000001 2.3718333333333335c0.6270000000000001 -0.11795833333333335 1.0608333333333335 -0.22404166666666667 1.0608333333333335 -0.22404166666666667l2.0369583333333336 -0.3974166666666667s-0.29608333333333337 1.2175833333333335 -1.4329166666666668 2.390041666666667z" fill="#ff4646" stroke-width="1"></path></svg>