<svg fill="#a8a83b" role="img" viewBox="0 0 24 24" xmlns="http://www.w3.org/2000/svg" id="Python--Streamline-Simple-Icons" height="12" width="12"><desc>Python Streamline Icon: https://streamlinehq.com</desc><title>Python</title><path d="m14.194 0.474 0.8776 0.195 0.7119 0.2536 0.5753 0.2925 0.4388 0.3121 0.3315 0.3315 0.2438 0.3315 0.156 0.3218 0.0976 0.2926 0.039 0.2535 0.0195 0.195 -0.0098 0.1268v5.2072l-0.0488 0.6143 -0.1267 0.5363 -0.2048 0.4486 -0.2535 0.3705 -0.2926 0.3023 -0.3218 0.2438 -0.3413 0.1853 -0.3412 0.1365 -0.3218 0.0975 -0.2926 0.0683 -0.2535 0.039 -0.2048 0.0195H8.8503l-0.6728 0.0487 -0.5753 0.1365 -0.4876 0.2146 -0.3998 0.2632 -0.3218 0.3121 -0.2632 0.3413 -0.1951 0.351 -0.1462 0.3608 -0.0975 0.3413 -0.0683 0.312 -0.039 0.2633 -0.0195 0.2048v2.9839H3.3896l-0.2047 -0.0293 -0.2731 -0.0682 -0.312 -0.117 -0.3413 -0.1756 -0.351 -0.2535 -0.3511 -0.351 -0.3413 -0.4486 -0.312 -0.5753 -0.273 -0.7118 -0.2048 -0.8582 -0.1365 -1.0238L0.24 11.9708l0.0585 -1.1897 0.156 -1.0141 0.2341 -0.8484 0.312 -0.6923 0.351 -0.5558 0.3901 -0.4291 0.4095 -0.3218 0.4096 -0.234 0.39 -0.156 0.3511 -0.0975 0.312 -0.0488 0.2341 -0.0097h0.156l0.0585 0.0097h7.957V5.574H6.3248L6.315 2.8924l-0.0195 -0.3608 0.0488 -0.3316 0.1072 -0.3023 0.1658 -0.273 0.2438 -0.2535 0.3023 -0.2243 0.3705 -0.195 0.4291 -0.1755 0.4973 -0.1463 0.5656 -0.117 0.624 -0.0975 0.6924 -0.0585 0.7508 -0.039 0.8191 -0.0195 1.2384 0.0487ZM8.0507 2.4048l-0.2242 0.3218 -0.078 0.3998 0.078 0.3998 0.2242 0.3315 0.3218 0.2145 0.3998 0.0878 0.3998 -0.0878 0.3218 -0.2145 0.2243 -0.3315 0.078 -0.3998 -0.078 -0.3998 -0.2243 -0.3218 -0.3218 -0.2146 -0.3998 -0.0877 -0.3998 0.0877Zm12.7644 3.8517 0.2731 0.0585 0.312 0.117 0.3413 0.1756 0.351 0.2632 0.3511 0.3413 0.3413 0.4583 0.312 0.5754 0.273 0.7118 0.2048 0.8581 0.1365 1.0141 0.0488 1.1994 -0.0585 1.1994 -0.156 1.0142 -0.2341 0.8386 -0.312 0.6923 -0.3511 0.5558 -0.39 0.4388 -0.4096 0.3218 -0.4095 0.2341 -0.3901 0.156 -0.351 0.0877 -0.312 0.0488 -0.2341 0.0195 -0.156 -0.0097h-8.0155v0.7996h5.6947l0.0098 2.6913 0.0195 0.351 -0.0488 0.3316 -0.1072 0.3023 -0.1658 0.2828 -0.2438 0.2437 -0.3023 0.2341 -0.3705 0.195 -0.4291 0.1658 -0.4973 0.1462 -0.5656 0.1268 -0.624 0.0878 -0.6924 0.0682 -0.7508 0.039 -0.8191 0.0098 -1.2384 -0.039 -1.0434 -0.1366 -0.8776 -0.195 -0.7119 -0.2438 -0.5753 -0.2925 -0.4388 -0.3218 -0.3315 -0.3315 -0.2438 -0.3316 -0.156 -0.3218 -0.0976 -0.2925 -0.039 -0.2438 -0.0195 -0.195 0.0098 -0.1268v-5.2071l0.0488 -0.6241 0.1267 -0.5266 0.2048 -0.4485 0.2535 -0.3706 0.2926 -0.312 0.3218 -0.2341 0.3413 -0.195 0.3412 -0.1365 0.3218 -0.0975 0.2926 -0.0585 0.2535 -0.039 0.2048 -0.0195 0.1268 -0.0098h5.6947l0.6728 -0.0487 0.5753 -0.1365 0.4876 -0.2048 0.3998 -0.2731 0.3218 -0.312 0.2633 -0.3413 0.195 -0.351 0.1463 -0.3511 0.0975 -0.3413 0.0682 -0.312 0.039 -0.273 0.0195 -0.2048V6.2175h2.038l0.1366 0.0098Zm-6.309 13.8955 -0.2243 0.3218 -0.078 0.3998 0.078 0.3998 0.2243 0.3218 0.3218 0.2243 0.3998 0.078 0.3998 -0.078 0.3218 -0.2243 0.2242 -0.3218 0.078 -0.3998 -0.078 -0.3998 -0.2242 -0.3218 -0.3218 -0.2242 -0.3998 -0.0781 -0.3998 0.0781Z"></path></svg>