<svg role="img" viewBox="-0.5 -0.5 20 20" xmlns="http://www.w3.org/2000/svg" id="Robotframework--Streamline-Simple-Icons" height="20" width="20"><desc>Robotframework Streamline Icon: https://streamlinehq.com</desc><title>Robot Framework</title><path d="M3.923895833333334 8.094475000000001c0 -1.4856416666666667 1.2078458333333335 -2.6934875000000003 2.691666666666667 -2.6934875000000003 1.4856416666666667 0 2.693566666666667 1.2078458333333335 2.693566666666667 2.6934875000000003 0 0.5413416666666667 -0.437475 0.9788166666666667 -0.9769958333333334 0.9788166666666667 -0.5397583333333333 0 -0.9772333333333334 -0.437475 -0.9772333333333334 -0.9788166666666667 0 -0.40612500000000007 -0.3313125 -0.7359333333333334 -0.7392583333333334 -0.7359333333333334 -0.4060458333333334 0 -0.7375958333333333 0.3297291666666667 -0.7375958333333333 0.7359333333333334 0 0.5413416666666667 -0.43723750000000006 0.9788166666666667 -0.9769166666666668 0.9788166666666667 -0.5397583333333333 0 -0.9772333333333334 -0.437475 -0.9772333333333334 -0.9788166666666667m11.152050000000001 4.5259583333333335c0 0.5416583333333334 -0.4373166666666667 0.9787375 -0.9769958333333334 0.9787375H5.0330208333333335c-0.5397583333333333 0 -0.9772333333333334 -0.43700000000000006 -0.9772333333333334 -0.9787375 0 -0.5412625 0.437475 -0.9787375 0.9772333333333334 -0.9787375h9.065929166666669c0.5396791666666667 0 0.9769166666666668 0.437475 0.9769166666666668 0.9787375m-4.236208333333334 -3.9776500000000006c-0.3019416666666667 -0.4478458333333334 -0.1839041666666667 -1.0551333333333335 0.2639416666666667 -1.3571541666666667l2.2663833333333336 -1.5306083333333336c0.44436250000000005 -0.30890833333333334 1.0552125 -0.18398333333333336 1.3572333333333333 0.2603791666666667 0.30202083333333335 0.4476083333333334 0.1839041666666667 1.0552125 -0.2639416666666667 1.3572333333333333l-2.2663833333333336 1.5305291666666667c-0.43082500000000007 0.30328750000000004 -1.0567166666666667 0.18833750000000002 -1.3572333333333333 -0.2603791666666667zm6.206112500000001 6.018091666666667a0.6978541666666667 0.6978541666666667 0 0 1 -0.20425000000000001 0.4929708333333334l-1.6844291666666669 1.6844291666666669a0.6984083333333334 0.6984083333333334 0 0 1 -0.49320833333333336 0.20425000000000001H4.336116666666667a0.6984083333333334 0.6984083333333334 0 0 1 -0.49320833333333336 -0.20425000000000001l-1.6844291666666669 -1.6844291666666669a0.6978541666666667 0.6978541666666667 0 0 1 -0.20425000000000001 -0.4929708333333334V4.339758333333333a0.6964291666666668 0.6964291666666668 0 0 1 0.20425000000000001 -0.49305000000000004l1.6844291666666669 -1.6848250000000002a0.6979333333333334 0.6979333333333334 0 0 1 0.49320833333333336 -0.20409166666666667h10.327766666666667a0.6979333333333334 0.6979333333333334 0 0 1 0.49320833333333336 0.20409166666666667l1.6844291666666669 1.6848250000000002a0.6964291666666668 0.6964291666666668 0 0 1 0.20425000000000001 0.49305000000000004V14.660875zm1.4337083333333334 -11.941104166666669L16.280150000000003 0.5206791666666667A1.7776083333333335 1.7776083333333335 0 0 0 15.023854166666668 0H3.9747208333333335A1.7768958333333333 1.7768958333333333 0 0 0 2.717791666666667 0.5209166666666667L0.5201250000000001 2.7200875000000004A1.7772125 1.7772125 0 0 0 0 3.976383333333334v11.047470833333335c0 0.47127916666666675 0.18730833333333335 0.9236375000000001 0.5205208333333333 1.2565333333333335l2.19925 2.1991708333333335c0.3332916666666667 0.3332916666666667 0.7851750000000001 0.5203625000000001 1.2564541666666666 0.5203625000000001h11.047550000000001a1.7771333333333337 1.7771333333333337 0 0 0 1.2565333333333335 -0.5203625000000001l2.1991708333333335 -2.1991708333333335A1.7761833333333334 1.7761833333333334 0 0 0 19 15.023854166666668V3.976541666666667a1.7773708333333333 1.7773708333333333 0 0 0 -0.5205208333333333 -1.2567708333333334z" fill="#000000" ></path></svg>