<svg fill="#3178C6" role="img" viewBox="-0.5 -0.5 20 20" xmlns="http://www.w3.org/2000/svg" id="Typescript--Streamline-Simple-Icons" height="20" width="20"><desc>Typescript Streamline Icon: https://streamlinehq.com</desc><title>TypeScript</title><path d="M0.8906250000000001 0C0.3974166666666667 0 0 0.3974166666666667 0 0.8906250000000001v17.21875C0 18.602583333333335 0.3974166666666667 19 0.8906250000000001 19h17.21875c0.49320833333333336 0 0.8906250000000001 -0.3974166666666667 0.8906250000000001 -0.8906250000000001V0.8906250000000001C19 0.3974166666666667 18.602583333333335 0 18.109375 0zm13.745708333333335 7.718750000000001c0.48450000000000004 0 0.9135833333333333 0.029291666666666667 1.2880416666666668 0.08787500000000001a5.050833333333333 5.050833333333333 0 0 1 1.0339166666666668 0.2691666666666667v1.945916666666667a3.1270833333333337 3.1270833333333337 0 0 0 -0.5090416666666667 -0.28579166666666667 4.031958333333334 4.031958333333334 0 0 0 -0.567625 -0.20583333333333337 4.316958333333334 4.316958333333334 0 0 0 -1.1289166666666668 -0.15833333333333335c-0.23750000000000002 0 -0.453625 0.022166666666666668 -0.648375 0.06808333333333333a1.6625000000000003 1.6625000000000003 0 0 0 -0.49320833333333336 0.19158333333333336c-0.13458333333333336 0.08233333333333334 -0.23750000000000002 0.18129166666666668 -0.31112500000000004 0.29608333333333337a0.7030000000000001 0.7030000000000001 0 0 0 -0.11083333333333335 0.3879166666666667c0 0.15516666666666667 0.041958333333333334 0.2952916666666667 0.12350000000000001 0.41879166666666673 0.08233333333333334 0.12350000000000001 0.1995 0.2406666666666667 0.35070833333333334 0.35150000000000003s0.33487500000000003 0.21850000000000003 0.551 0.32458333333333333c0.21612500000000004 0.10687500000000001 0.46075 0.2169166666666667 0.7330833333333334 0.32933333333333337 0.3720833333333333 0.15595833333333337 0.7061666666666667 0.3222083333333333 1.00225 0.4971666666666667 0.29608333333333337 0.17575000000000002 0.5502083333333333 0.37445833333333334 0.762375 0.596125 0.2121666666666667 0.22087500000000004 0.3736666666666667 0.4734166666666667 0.48608333333333337 0.757625 0.11241666666666666 0.28420833333333334 0.1694166666666667 0.6143333333333334 0.1694166666666667 0.9919583333333334 0 0.5201250000000001 -0.09895833333333334 0.9579166666666667 -0.2952916666666667 1.3110000000000002a2.401125 2.401125 0 0 1 -0.8011666666666668 0.8589583333333334 3.4675000000000002 3.4675000000000002 0 0 1 -1.1772083333333334 0.4718333333333334c-0.44808333333333333 0.095 -0.9207083333333335 0.14250000000000002 -1.4170833333333335 0.14250000000000002a7.850166666666667 7.850166666666667 0 0 1 -1.4566666666666668 -0.12983333333333336 4.389 4.389 0 0 1 -1.197 -0.3902916666666667v-2.0820833333333333a3.984458333333334 3.984458333333334 0 0 0 2.562625 0.9500000000000001c0.26362500000000005 0 0.49400000000000005 -0.02375 0.6903333333333334 -0.07125000000000001 0.19712500000000002 -0.0475 0.36100000000000004 -0.114 0.49320833333333336 -0.19791666666666669 0.13141666666666668 -0.0855 0.22958333333333333 -0.18525000000000003 0.2952916666666667 -0.30083333333333334a0.809875 0.809875 0 0 0 -0.058583333333333334 -0.862125 1.6783333333333337 1.6783333333333337 0 0 0 -0.4251250000000001 -0.39583333333333337 4.430958333333334 4.430958333333334 0 0 0 -0.6388750000000001 -0.35150000000000003 21.945 21.945 0 0 0 -0.7972083333333333 -0.3451666666666667c-0.7267500000000001 -0.30320833333333336 -1.26825 -0.6745000000000001 -1.6252916666666668 -1.112291666666667 -0.35625000000000007 -0.43779166666666675 -0.5351666666666668 -0.9674166666666667 -0.5351666666666668 -1.5872916666666668 0 -0.48608333333333337 0.097375 -0.9032916666666667 0.292125 -1.2524166666666667 0.19475 -0.349125 0.45916666666666667 -0.6365000000000001 0.7948333333333334 -0.862125a3.55775 3.55775 0 0 1 1.16375 -0.4979583333333334 5.966 5.966 0 0 1 1.40125 -0.15912500000000002zm-11.964458333333335 0.14883333333333335h7.570708333333335v1.71475H7.525583333333334v7.636416666666668H5.374625v-7.636416666666668H2.6718750000000004z"></path></svg>