<svg role="img" viewBox="-0.5 -0.5 20 20" xmlns="http://www.w3.org/2000/svg" id="Wireshark--Streamline-Simple-Icons" height="20" width="20"><desc>Wireshark Streamline Icon: https://streamlinehq.com</desc><title>Wireshark</title><path d="M2.335416666666667 0C1.0529166666666667 0 0 1.0450000000000002 0 2.335416666666667v14.32916666666667C0 17.955000000000002 1.0450000000000002 19 2.335416666666667 19h14.32916666666667c1.2825000000000002 0 2.335416666666667 -1.0450000000000002 2.335416666666667 -2.335416666666667V2.335416666666667C18.99981 1.0450000000000002 17.955000000000002 0 16.664583333333336 0zm0 0.8629166666666668h14.32916666666667c0.8233333333333335 0 1.4645833333333336 0.6475833333333334 1.4645833333333336 1.4725000000000001v11.083333333333334h-4.172083333333333c-0.2652083333333334 -0.6301666666666668 -2.0345833333333334 -5.122083333333333 0.22404166666666667 -8.629166666666668a0.40850000000000003 0.4092916666666667 0 0 0 -0.35070833333333334 -0.6285833333333334c-4.148333333333334 0.06547083333333334 -6.491666666666667 2.5254166666666666 -7.710833333333334 4.916250000000001 -1.06875 2.0900000000000003 -1.2904166666666668 3.887083333333334 -1.3379166666666666 4.377916666666668H0.8629166666666668v-11.083333333333334c0 -0.8233333333333335 0.6467916666666667 -1.4725000000000001 1.4645833333333336 -1.4725000000000001zm10.766666666666667 4.148333333333334c-2.074166666666667 4.148333333333334 0.19633333333333336 9.025 0.19633333333333336 9.025a0.40850000000000003 0.4092916666666667 0 0 0 0.3712916666666667 0.23829166666666668h4.449166666666668v2.4145833333333333c0 0.8233333333333335 -0.6467916666666667 1.4725000000000001 -1.4645833333333336 1.4725000000000001h-14.32916666666667c-0.8233333333333335 0 -1.4645833333333336 -0.6475833333333334 -1.4645833333333336 -1.4725000000000001v-2.4145833333333333h4.267083333333334a0.40850000000000003 0.4092916666666667 0 0 0 0.4069166666666667 -0.37762500000000004s0.1789166666666667 -2.216666666666667 1.3141666666666667 -4.449166666666668c1.0608333333333335 -2.074166666666667 2.905416666666667 -4.092916666666667 6.262083333333334 -4.409583333333334z" fill="#171cad" stroke-width="1"></path></svg>